<svg xmlns="http://www.w3.org/2000/svg"  viewBox="0 0 26 26" width="26px" height="26px"><path d="M 0 0 L 0 9 L 9 9 L 9 0 Z M 11 0 L 11 2 L 13 2 L 13 0 Z M 13 2 L 13 4 L 11 4 L 11 8 L 13 8 L 13 6 L 15 6 L 15 2 Z M 13 8 L 13 11 L 4 11 L 4 13 L 2 13 L 2 15 L 6 15 L 6 13 L 8 13 L 8 15 L 13 15 L 13 13 L 15 13 L 15 15 L 18 15 L 18 13 L 20 13 L 20 11 L 15 11 L 15 8 Z M 20 13 L 20 15 L 26 15 L 26 13 L 24 13 L 24 11 L 22 11 L 22 13 Z M 2 13 L 2 11 L 0 11 L 0 13 Z M 17 0 L 17 9 L 26 9 L 26 0 Z M 2 2 L 7 2 L 7 7 L 2 7 Z M 19 2 L 24 2 L 24 7 L 19 7 Z M 3 3 L 3 6 L 6 6 L 6 3 Z M 20 3 L 20 6 L 23 6 L 23 3 Z M 11 16 L 11 18 L 13 18 L 13 16 Z M 13 18 L 13 20 L 11 20 L 11 24 L 13 24 L 13 22 L 17 22 L 17 20 L 19 20 L 19 18 L 21 18 L 21 20 L 19 20 L 19 22 L 17 22 L 17 26 L 19 26 L 19 24 L 21 24 L 21 22 L 22 22 L 22 24 L 21 24 L 21 26 L 23 26 L 23 24 L 24 24 L 24 22 L 26 22 L 26 18 L 24 18 L 24 16 L 17 16 L 17 18 Z M 24 24 L 24 26 L 26 26 L 26 24 Z M 13 24 L 13 26 L 15 26 L 15 24 Z M 0 17 L 0 26 L 9 26 L 9 17 Z M 2 19 L 7 19 L 7 24 L 2 24 Z M 3 20 L 3 23 L 6 23 L 6 20 Z"/></svg>