<svg xmlns="http://www.w3.org/2000/svg"  viewBox="0 0 24 24" width="24px" height="24px" fill-rule="evenodd" clip-rule="evenodd"><path d="M 12 6.25 C 8.6 6.25 5.3395469 7.6008594 2.9355469 10.005859 C 2.9355469 10.004859 1.4707031 11.46875 1.4707031 11.46875 C 1.3297031 11.60975 1.25 11.801 1.25 12 C 1.25 12.199 1.3297031 12.39025 1.4707031 12.53125 L 2.9355469 13.994141 C 5.3395469 16.398141 8.6 17.75 12 17.75 C 15.4 17.75 18.660453 16.399141 21.064453 13.994141 C 21.064453 13.995141 22.529297 12.53125 22.529297 12.53125 C 22.670297 12.39025 22.75 12.199 22.75 12 C 22.75 11.801 22.670297 11.60975 22.529297 11.46875 L 21.064453 10.005859 C 18.660453 7.6018594 15.4 6.25 12 6.25 z M 12 7.75 C 15.002 7.75 17.881859 8.9434063 20.005859 11.066406 L 20.939453 12 L 20.005859 12.933594 C 17.881859 15.056594 15.002 16.25 12 16.25 C 8.998 16.25 6.1181406 15.056594 3.9941406 12.933594 L 3.0605469 12 L 3.9941406 11.066406 C 6.1181406 8.9434063 8.998 7.75 12 7.75 z M 12 8.25 C 9.93 8.25 8.25 9.93 8.25 12 C 8.25 14.07 9.93 15.75 12 15.75 C 14.07 15.75 15.75 14.07 15.75 12 C 15.75 9.93 14.07 8.25 12 8.25 z M 12 9.75 C 13.242 9.75 14.25 10.758 14.25 12 C 14.25 13.242 13.242 14.25 12 14.25 C 10.758 14.25 9.75 13.242 9.75 12 C 9.75 10.758 10.758 9.75 12 9.75 z"/></svg>