<svg xmlns="http://www.w3.org/2000/svg" x="0px" y="0px"
width="16" height="16"
viewBox="0,0,256,256"
style="fill:#000000;">
<g fill="none" fill-rule="nonzero" stroke="none" stroke-width="1" stroke-linecap="butt" stroke-linejoin="miter" stroke-miterlimit="10" stroke-dasharray="" stroke-dashoffset="0" font-family="none" font-weight="none" font-size="none" text-anchor="none" style="mix-blend-mode: normal"><path d="M0,256v-256h256v256z" id="bgRectangle"></path></g><g fill="#ffffff" fill-rule="nonzero" stroke="none" stroke-width="1" stroke-linecap="butt" stroke-linejoin="miter" stroke-miterlimit="10" stroke-dasharray="" stroke-dashoffset="0" font-family="none" font-weight="none" font-size="none" text-anchor="none" style="mix-blend-mode: normal"><g transform="scale(3.2,3.2)"><path d="M60,11h8v8h-8zM32,3h4v4h-4zM36,7h8v4h-8zM44,11h4v4h-4zM44,3h4v4h-4zM40,15h4v4h-4zM36,19h4v4h-4zM44,19h4v4h-4zM44,27h4v4h-4zM40,55h4v4h-4zM36,59h4v4h-4zM32,63h4v4h-4zM40,63h4v4h-4zM40,71h4v4h-4zM40,31h4v24h-4zM28,31h4v4h-4zM20,31h4v4h-4zM12,31h4v4h-4zM8,39h4v4h-4zM16,39h4v4h-4zM24,39h4v4h-4zM28,43h4v4h-4zM32,47h4v4h-4zM36,51h4v4h-4zM32,55h4v4h-4zM64,59h4v4h-4zM60,63h4v4h-4zM68,63h4v4h-4zM68,71h4v4h-4zM56,59h4v4h-4zM64,67h4v4h-4zM44,67h16v4h-16zM52,55h24v4h-24zM12,43h4v4h-4zM4,35h24v4h-24zM72,31h4v4h-4zM64,31h4v4h-4zM56,31h4v4h-4zM52,39h4v4h-4zM60,39h4v4h-4zM68,39h4v4h-4zM72,43h4v4h-4zM56,43h4v4h-4zM44,47h4v4h-4zM52,47h4v4h-4zM60,47h4v4h-4zM64,51h4v4h-4zM48,51h4v4h-4z"></path><path d="M36,35h36v4h-36zM32,11h4v32h-4zM72,7v16h-16v-16h16M76,3h-24v24h24v-24zM12,11h8v8h-8z"></path><path d="M24,7v16h-16v-16h16M28,3h-24v24h24v-24zM12,59h8v8h-8z"></path><path d="M24,55v16h-16v-16h16M28,51h-24v24h24v-24z"></path></g></g>
</svg>